<svg width="1640" height="1061" viewBox="0 0 1640 1061" fill="none" xmlns="http://www.w3.org/2000/svg">
<path d="M6.99997 635.5C6.94772 636.312 6.89496 637.146 6.84182 638M6.84182 638C4.69178 672.565 1.92539 740.667 6.99997 755.5C13.5 774.5 17 793 37.5 798C58 803 94.5 793.5 95 768C95.5 742.5 73 717 76 699C79 681 93 634 86 619C79 604 44.5 592 32.5 601C22.9 608.2 11.3945 628.667 6.84182 638ZM1068 607C1083.5 613.333 1122.7 627.1 1155.5 631.5C1196.5 637 1347 642 1380.5 641C1414 640 1538 638 1573.5 633C1601.9 629 1626.33 613.667 1635 606.5L1068 607ZM225.5 1015.5C232.833 1022.83 252.8 1038.9 274 1044.5C300.5 1051.5 349 1054.5 362.5 1035C376 1015.5 356 977 311 956C266 935 223.5 944 212.5 956C201.5 968 205 999.409 225.5 1015.5ZM726.5 907C713.833 929.5 703.5 975.4 763.5 979C838.5 983.5 888.5 980 899.5 968C910.5 956 933 903.5 906.5 888C880 872.5 811 857.5 778 868.5C751.6 877.3 732.667 897.833 726.5 907ZM1290 990.5C1285.67 1005.83 1285.5 1039.1 1319.5 1049.5C1362 1062.5 1402 1061.5 1407.5 1055.5C1413 1049.5 1452 1019.5 1433.5 976.5C1415 933.5 1384.5 924.5 1360 925.5C1335.5 926.5 1309 942.5 1301.5 959.5C1295.5 973.1 1291.33 985.833 1290 990.5ZM438.5 678.5C434.5 694.5 433.8 730.1 463 744.5C499.5 762.5 543 739 554.5 723C566 707 562 659.5 533.5 642.5C505 625.5 465.5 643 459.5 649C454.7 653.8 443.5 670.667 438.5 678.5ZM8.49998 44.5C5.16665 70.3334 -0.500015 127.3 3.49998 148.5C8.49998 175 3 194 23.5 200.5C44 207 66.5 187.5 66.5 183.5C66.5 179.5 71.5 127 80.5 124C89.5 121 126.5 92.5 126.5 78.5C126.5 64.5 115.5 18 91 11.5C66.5 5.00002 48.5 -3.49998 33 6.00002C20.6 13.6 11.5 34.8334 8.49998 44.5ZM1071.5 267C1079.5 262 1108.7 251.5 1161.5 249.5C1227.5 247 1320 235.5 1354.5 235.5C1389 235.5 1417 228 1478 235.5C1539 243 1580.5 249.5 1598.5 249.5C1612.9 249.5 1625.83 261.167 1630.5 267H1071.5Z" stroke="black" stroke-width="3" stroke-dasharray="20 20"/>
</svg>
