<svg width="1990" height="1527" viewBox="0 0 1990 1527" fill="none" xmlns="http://www.w3.org/2000/svg">
<path d="M269.834 281.868C257.463 278.676 239.736 280.538 232.419 281.868C196.9 279.962 189.018 328.965 189.517 353.705L182.034 604.137V796.201L174.551 1155.88C170.56 1194.96 169.163 1281.5 195.503 1315.02C221.843 1348.55 256.365 1314.03 290.787 1283.1C327.703 1252.17 467.885 1157.38 540.72 1155.88C613.554 1154.39 698.362 1121.46 726.797 1097.02C755.233 1072.57 823.079 1001.73 845.029 980.782C866.979 959.83 894.417 900.963 900.404 866.542C905.193 839.004 893.419 762.278 886.934 727.357C883.442 703.911 885.437 697.226 883.442 668.491C880.948 632.572 838.381 569.966 832.059 557.742C824.576 543.275 803.623 485.905 792.149 464.454C782.863 447.092 734.779 400.1 706.344 385.633C689.382 379.646 673.419 376.653 650.471 383.138C620.672 391.56 586.616 394.114 566.661 385.633C546.706 377.152 522.76 374.658 507.296 365.678C491.831 356.698 374.597 328.762 359.631 322.775C344.665 316.789 285.299 285.859 269.834 281.868Z" fill="#91DE84"/>
<path d="M314.733 148.172C280.41 161.342 276.486 189.245 278.814 201.551C277.983 201.052 277.317 202.349 281.308 211.528C286.297 223.002 296.773 230.984 314.733 246.948C332.692 262.911 367.613 285.36 395.05 296.335C422.488 307.311 496.32 323.773 518.77 327.265C541.219 330.757 609.065 338.24 635.505 340.236C661.945 342.231 702.852 345.723 742.262 365.179C781.673 384.635 817.591 434.023 829.065 454.477C840.539 474.93 854.009 501.869 864.984 527.311C875.959 552.754 896.911 593.162 926.844 600.146C956.776 607.13 1009.66 587.674 1030.11 585.679C1050.56 583.683 1155.33 596.155 1174.28 596.654C1193.24 597.153 1195.23 586.677 1202.72 576.699C1210.2 566.722 1233.15 514.84 1253.6 482.413C1274.06 449.987 1333.42 411.075 1359.36 399.102C1385.3 387.129 1440.68 383.637 1457.64 381.642C1474.6 379.646 1529.97 380.644 1591.34 379.646C1652.7 378.649 1703.58 356.2 1715.05 346.721C1726.53 337.243 1748.98 300.825 1759.45 278.875C1769.93 256.925 1782.9 203.546 1784.4 183.591C1785.89 163.637 1784.9 146.176 1736.51 117.741C1688.12 89.3053 1574.87 105.269 1549.43 105.269C1523.99 105.269 1276.55 113.75 1248.61 114.748C1220.68 115.745 1037.09 127.219 1005.17 130.212C973.238 133.206 746.253 146.675 739.768 146.675C733.283 146.675 628.022 155.655 580.13 146.675C541.817 139.491 463.063 132.707 428.474 130.212C404.861 130.711 349.055 135.002 314.733 148.172Z" fill="#91DE84"/>
<path d="M350.651 1284.09C289.59 1337.97 290.288 1366.41 298.27 1373.89C300.931 1382.87 318.624 1403.42 368.111 1413.8C429.971 1426.77 477.862 1413.8 518.271 1413.8C558.679 1413.8 865.483 1400.83 900.404 1400.83C935.324 1400.83 1295.01 1391.35 1348.39 1391.35C1401.77 1391.35 1561.9 1400.83 1585.85 1400.83C1605 1400.83 1684.29 1394.51 1721.54 1391.35C1729.02 1381.54 1743.49 1358.43 1741.49 1344.46C1739 1327 1704.08 1313.53 1696.1 1259.65C1688.12 1205.77 1644.71 1176.84 1593.83 1157.88C1542.95 1138.92 1466.62 1137.93 1400.77 1129.44C1334.92 1120.96 1299 1097.52 1262.58 1064.09C1226.16 1030.67 1195.73 944.365 1174.28 930.896C1152.83 917.426 984.712 916.428 948.794 930.896C912.875 945.363 880.449 984.773 856.004 1021.19C831.56 1057.61 748.748 1130.94 701.854 1160.37C664.339 1183.92 570.818 1196.13 528.747 1199.29C494.824 1205.11 411.712 1230.22 350.651 1284.09Z" fill="#91DE84"/>
<path d="M1819.82 571.711V910.442H1276.05V765.271C1268.24 763.608 1249.11 762.877 1241.13 769.262C1231.15 777.244 1226.16 805.684 1225.17 819.648C1224.17 833.616 1233.65 937.88 1247.12 968.311C1260.59 998.741 1272.56 1039.65 1330.43 1066.09C1388.3 1092.53 1468.12 1102.01 1527.98 1107.49C1587.84 1112.98 1643.72 1115.98 1686.62 1164.86C1729.52 1213.75 1727.53 1235.7 1733.01 1249.67C1738.5 1263.64 1755.46 1297.06 1770.43 1305.55C1785.4 1314.03 1807.84 1329.49 1831.29 1305.55C1854.74 1281.6 1863.22 1273.62 1868.71 1246.68C1868.71 1209.26 1867.21 1137.43 1866.21 1126.95C1865.41 1118.57 1863.88 1055.28 1863.22 1024.68L1861.22 852.573V741.326L1853.74 569.216V272.889C1855.57 264.574 1857.23 244.553 1849.25 230.984C1841.27 217.415 1825.8 217 1819.32 217C1813.83 233.629 1800.66 270.494 1789.89 296.834C1776.42 329.76 1758.96 376.154 1709.57 390.621C1660.18 405.089 1575.37 415.565 1538.95 414.567C1502.54 413.569 1426.71 410.576 1390.29 421.551C1353.87 432.526 1307.98 459.964 1284.53 490.894C1261.09 521.824 1232.15 573.706 1225.67 621.597C1219.18 669.489 1217.25 688.159 1234.65 709.897C1242.63 719.874 1276.05 716.881 1276.05 718.877V571.711H1819.82Z" fill="#91DE84"/>
<path d="M1853.74 570.214V569.216M1853.74 569.216V272.889C1855.57 264.574 1857.23 244.553 1849.25 230.984C1841.27 217.415 1825.8 217 1819.32 217C1813.83 233.629 1800.66 270.494 1789.89 296.834C1776.42 329.76 1758.96 376.154 1709.57 390.621C1660.18 405.089 1575.37 415.565 1538.95 414.567C1502.54 413.569 1426.71 410.576 1390.29 421.551C1353.87 432.526 1307.98 459.964 1284.53 490.894C1261.09 521.824 1232.15 573.706 1225.67 621.597C1219.18 669.489 1217.25 688.159 1234.65 709.897C1242.63 719.874 1276.05 716.881 1276.05 718.877V571.711H1819.82V910.442H1276.05V765.271C1268.24 763.608 1249.11 762.877 1241.13 769.262C1231.15 777.244 1226.16 805.684 1225.17 819.648C1224.17 833.616 1233.65 937.88 1247.12 968.311C1260.59 998.741 1272.56 1039.65 1330.43 1066.09C1388.3 1092.53 1468.12 1102.01 1527.98 1107.49C1587.84 1112.98 1643.72 1115.98 1686.62 1164.86C1729.52 1213.75 1727.53 1235.7 1733.01 1249.67C1738.5 1263.64 1755.46 1297.06 1770.43 1305.55C1785.4 1314.03 1807.84 1329.49 1831.29 1305.55C1854.74 1281.6 1863.22 1273.62 1868.71 1246.68C1868.71 1209.26 1867.21 1137.43 1866.21 1126.95C1865.41 1118.57 1863.88 1055.28 1863.22 1024.68L1861.22 852.573V741.326L1853.74 569.216ZM232.419 281.868C239.736 280.538 257.463 278.676 269.834 281.868C285.299 285.859 344.665 316.789 359.631 322.775C374.597 328.762 491.831 356.698 507.296 365.678C522.76 374.658 546.706 377.152 566.661 385.633C586.616 394.114 620.672 391.56 650.471 383.138C673.419 376.653 689.382 379.646 706.344 385.633C734.779 400.1 782.863 447.092 792.149 464.454C803.623 485.905 824.576 543.275 832.059 557.742C838.381 569.966 880.948 632.572 883.442 668.491C885.437 697.226 883.442 703.911 886.934 727.357C893.419 762.278 905.193 839.004 900.404 866.542C894.417 900.963 866.979 959.83 845.029 980.782C823.079 1001.73 755.233 1072.57 726.797 1097.02C698.362 1121.46 613.554 1154.39 540.72 1155.88C467.885 1157.38 327.703 1252.17 290.787 1283.1C256.365 1314.03 221.843 1348.55 195.503 1315.02C169.163 1281.5 170.56 1194.96 174.551 1155.88L182.034 796.201V604.137L189.517 353.705C189.018 328.965 196.9 279.962 232.419 281.868ZM278.814 201.551C276.486 189.245 280.41 161.342 314.733 148.172C349.055 135.002 404.861 130.711 428.474 130.212C463.063 132.707 541.817 139.491 580.13 146.675C628.022 155.655 733.283 146.675 739.768 146.675C746.253 146.675 973.238 133.206 1005.17 130.212C1037.09 127.219 1220.68 115.745 1248.61 114.748C1276.55 113.75 1523.99 105.269 1549.43 105.269C1574.87 105.269 1688.12 89.3053 1736.51 117.741C1784.9 146.176 1785.89 163.637 1784.4 183.591C1782.9 203.546 1769.93 256.925 1759.45 278.875C1748.98 300.825 1726.53 337.243 1715.05 346.721C1703.58 356.2 1652.7 378.649 1591.34 379.646C1529.97 380.644 1474.6 379.646 1457.64 381.642C1440.68 383.637 1385.3 387.129 1359.36 399.102C1333.42 411.075 1274.06 449.987 1253.6 482.413C1233.15 514.84 1210.2 566.722 1202.72 576.699C1195.23 586.677 1193.24 597.153 1174.28 596.654C1155.33 596.155 1050.56 583.683 1030.11 585.679C1009.66 587.674 956.776 607.13 926.844 600.146C896.911 593.162 875.959 552.754 864.984 527.311C854.009 501.869 840.539 474.93 829.065 454.477C817.591 434.023 781.673 384.635 742.262 365.179C702.852 345.723 661.945 342.231 635.505 340.236C609.065 338.24 541.219 330.757 518.77 327.265C496.32 323.773 422.488 307.311 395.05 296.335C367.613 285.36 332.692 262.911 314.733 246.948C296.773 230.984 286.297 223.002 281.308 211.528C277.317 202.349 277.983 201.052 278.814 201.551ZM298.27 1373.89C290.288 1366.41 289.59 1337.97 350.651 1284.09C411.712 1230.22 494.824 1205.11 528.747 1199.29C570.818 1196.13 664.339 1183.92 701.854 1160.37C748.748 1130.94 831.56 1057.61 856.004 1021.19C880.449 984.773 912.875 945.363 948.794 930.896C984.712 916.428 1152.83 917.426 1174.28 930.896C1195.73 944.365 1226.16 1030.67 1262.58 1064.09C1299 1097.52 1334.92 1120.96 1400.77 1129.44C1466.62 1137.93 1542.95 1138.92 1593.83 1157.88C1644.71 1176.84 1688.12 1205.77 1696.1 1259.65C1704.08 1313.53 1739 1327 1741.49 1344.46C1743.49 1358.43 1729.02 1381.54 1721.54 1391.35C1684.29 1394.51 1605 1400.83 1585.85 1400.83C1561.9 1400.83 1401.77 1391.35 1348.39 1391.35C1295.01 1391.35 935.324 1400.83 900.404 1400.83C865.483 1400.83 558.679 1413.8 518.271 1413.8C477.862 1413.8 429.971 1426.77 368.111 1413.8C318.624 1403.42 300.931 1382.87 298.27 1373.89Z" stroke="black" stroke-width="3"/>
<path d="M483.849 1347.45C462.697 1341.86 442.775 1325.83 435.459 1318.52C415.005 1302.46 411.513 1271.12 422.488 1259.15C433.463 1247.18 475.867 1238.2 520.765 1259.15C565.663 1280.1 585.618 1318.52 572.148 1337.97C558.679 1357.43 510.289 1354.43 483.849 1347.45Z" fill="#9A7C59"/>
<path d="M972.24 1282.1C912.376 1278.51 922.686 1232.71 935.324 1210.26C941.477 1201.12 960.367 1180.63 986.708 1171.85C1019.63 1160.87 1088.48 1175.84 1114.92 1191.3C1141.36 1206.77 1118.91 1259.15 1107.93 1271.12C1096.96 1283.1 1047.07 1286.59 972.24 1282.1Z" fill="#9A7C59"/>
<path d="M1526.98 1352.44C1493.06 1342.06 1493.23 1308.87 1497.55 1293.57C1498.88 1288.92 1503.04 1276.21 1509.02 1262.64C1516.51 1245.68 1542.95 1229.72 1567.39 1228.72C1591.83 1227.72 1622.27 1236.7 1640.72 1279.6C1659.18 1322.51 1620.27 1352.44 1614.78 1358.43C1609.29 1364.41 1569.39 1365.41 1526.98 1352.44Z" fill="#9A7C59"/>
<path d="M672.421 1048.13C643.287 1033.76 643.985 998.243 647.976 982.279C652.965 974.463 664.14 957.635 668.929 952.846C674.915 946.859 714.326 929.399 742.761 946.36C771.197 963.322 775.188 1010.71 763.714 1026.68C752.24 1042.64 708.838 1066.09 672.421 1048.13Z" fill="#9A7C59"/>
<path d="M247.884 1101.51C227.431 1096.52 223.939 1078.06 217.453 1059.1C212.39 1044.3 215.15 976.358 217.295 941.871C221.838 932.558 233.317 912.138 242.896 904.954C254.868 895.975 289.29 907.948 296.274 922.914C303.259 937.88 289.29 984.773 286.297 1002.73C283.304 1020.69 305.753 1046.13 305.254 1071.58C304.755 1097.02 268.338 1106.5 247.884 1101.51Z" fill="#9A7C59"/>
<path d="M213.961 453.479C209.97 432.327 215.624 375.489 218.95 349.714C221.943 340.07 231.023 318.884 243.394 311.302C258.859 301.823 276.819 310.304 301.263 316.789C325.708 323.274 336.683 369.669 336.683 383.637C336.683 397.606 299.767 426.041 290.787 429.034C281.807 432.028 276.819 484.409 276.819 488.4C276.819 492.391 254.37 511.846 233.916 505.361C213.462 498.876 218.95 479.919 213.961 453.479Z" fill="#9A7C59"/>
<path d="M217.453 939.376C217.401 940.186 217.349 941.018 217.295 941.871M217.295 941.871C215.15 976.358 212.39 1044.3 217.453 1059.1C223.939 1078.06 227.431 1096.52 247.884 1101.51C268.338 1106.5 304.755 1097.02 305.254 1071.58C305.753 1046.13 283.304 1020.69 286.297 1002.73C289.29 984.773 303.259 937.88 296.274 922.914C289.29 907.948 254.868 895.975 242.896 904.954C233.317 912.138 221.838 932.558 217.295 941.871ZM435.459 1318.52C442.775 1325.83 462.697 1341.86 483.849 1347.45C510.289 1354.43 558.679 1357.43 572.148 1337.97C585.618 1318.52 565.663 1280.1 520.765 1259.15C475.867 1238.2 433.463 1247.18 422.488 1259.15C411.513 1271.12 415.005 1302.46 435.459 1318.52ZM935.324 1210.26C922.686 1232.71 912.376 1278.51 972.24 1282.1C1047.07 1286.59 1096.96 1283.1 1107.93 1271.12C1118.91 1259.15 1141.36 1206.77 1114.92 1191.3C1088.48 1175.84 1019.63 1160.87 986.708 1171.85C960.367 1180.63 941.477 1201.12 935.324 1210.26ZM1497.55 1293.57C1493.23 1308.87 1493.06 1342.06 1526.98 1352.44C1569.39 1365.41 1609.29 1364.41 1614.78 1358.43C1620.27 1352.44 1659.18 1322.51 1640.72 1279.6C1622.27 1236.7 1591.83 1227.72 1567.39 1228.72C1542.95 1229.72 1516.51 1245.68 1509.02 1262.64C1503.04 1276.21 1498.88 1288.92 1497.55 1293.57ZM647.976 982.279C643.985 998.243 643.287 1033.76 672.421 1048.13C708.838 1066.09 752.24 1042.64 763.714 1026.68C775.188 1010.71 771.197 963.322 742.761 946.36C714.326 929.399 674.915 946.859 668.929 952.846C664.14 957.635 652.965 974.463 647.976 982.279ZM218.95 349.714C215.624 375.489 209.97 432.327 213.961 453.479C218.95 479.919 213.462 498.876 233.916 505.361C254.37 511.846 276.819 492.391 276.819 488.4C276.819 484.409 281.807 432.028 290.787 429.034C299.767 426.041 336.683 397.606 336.683 383.637C336.683 369.669 325.708 323.274 301.263 316.789C276.819 310.304 258.859 301.823 243.394 311.302C231.023 318.884 221.943 340.07 218.95 349.714Z" stroke="black" stroke-width="3" stroke-dasharray="20 20"/>
<path d="M53.5 1148C54.3 1098 57.5 906.833 59 817.5V328C59 287.5 98.5 259.5 123 271.5C147.5 283.5 136.5 365 136.5 378.5V907.5C136.5 947 130 1126.5 129 1180C128 1233.5 126 1311.5 151.5 1355C177 1398.5 249.5 1435.5 306 1453C362.5 1470.5 451 1454.5 471.5 1453C487.9 1451.8 668 1449.17 756 1448C826.5 1444.17 971.9 1441.1 989.5 1459.5C1007.1 1477.9 1002.83 1502.17 998.5 1512C949.833 1511.67 845.1 1511.2 815.5 1512C778.5 1513 635.5 1516 619.5 1517L619.066 1517.03C600.599 1518.18 428.552 1528.95 316 1522.5C202.5 1516 97 1401 81 1374.5C65 1348 65 1336 59 1304.5C53 1273 52.5 1210.5 53.5 1148Z" fill="#A6C2A1"/>
<path d="M199.5 170C169.5 187.6 102.667 187.667 73 185.5C68.6667 171.167 58.9 136.2 54.5 111C50.1 85.8 17 68.8333 1 63.5C17.3333 67.3333 54.6 77 73 85C96 95 244.5 102 248.5 111C252.5 120 237 148 199.5 170Z" fill="#A6C2A1"/>
<path d="M283 85C247 74.6 244 28 247 6V3H1903.5C1904.83 20.6667 1906.7 58.3 1903.5 67.5C1899.5 79 1871.5 100.5 1822.5 98C1773.5 95.5 1717.5 75 1671.5 67.5C1625.5 60 1581 56 1533.5 56C1486 56 1257.5 77.5 1188 85C1118.5 92.5 995.5 95 958 85C920.5 75 922 67.5 900.5 56C879 44.5 838.5 23 791 21.5C753 20.3 716.833 51.6667 703.5 67.5C697.167 82.3333 678.5 111.5 654.5 109.5C630.5 107.5 519.833 99 467.5 95C421 96 319 95.4 283 85Z" fill="#A6C2A1"/>
<path d="M816.5 109C800.9 109 729 111.667 695 113C714.5 96.3333 763.2 61.7999 802 56.9999C850.5 50.9999 934.5 105 922 104C909.5 103 836 109 816.5 109Z" fill="#A6C2A1"/>
<path d="M1677.5 1508.5H1038.5V1469.5C1038.5 1438.3 1094.17 1440.17 1122 1445H1713.5C1785.5 1445 1838 1396 1862.5 1378C1887 1360 1906.5 1294.5 1914.5 1262C1922.5 1229.5 1905 990.5 1906.5 948C1907.7 914 1898.33 582.833 1893.5 421.5V254.5C1893.5 236.1 1878.17 209.833 1870.5 199C1859.17 185.333 1841.4 154.8 1861 142C1885.5 126 1901.5 150 1928 158C1949.2 164.4 1977.17 176 1988.5 181V1221C1988.5 1263.5 1980 1306 1968.5 1347C1957 1388 1942.5 1448 1877 1481C1824.6 1507.4 1722.17 1510.33 1677.5 1508.5Z" fill="#A6C2A1"/>
<path d="M1984.5 2H1943.5V53C1943.5 62.5 1928 88 1929 112C1929.8 131.2 1966.33 138 1984.5 139V2Z" fill="#A6C2A1"/>
<path d="M79.5 55.5C50.7 54.3 18.8333 46.3333 6.5 42.5V6.5H211C212.167 22.8333 210.2 57.4 193 65C171.5 74.5 115.5 57 79.5 55.5Z" fill="#A6C2A1"/>
<path d="M53.5 1148C54.3 1098 57.5 906.833 59 817.5V328C59 287.5 98.5 259.5 123 271.5C147.5 283.5 136.5 365 136.5 378.5V907.5C136.5 947 130 1126.5 129 1180C128 1233.5 126 1311.5 151.5 1355C177 1398.5 249.5 1435.5 306 1453C362.5 1470.5 451 1454.5 471.5 1453C487.9 1451.8 668 1449.17 756 1448C826.5 1444.17 971.9 1441.1 989.5 1459.5C1007.1 1477.9 1002.83 1502.17 998.5 1512C949.833 1511.67 845.1 1511.2 815.5 1512C778.5 1513 635.5 1516 619.5 1517L619.066 1517.03C600.599 1518.18 428.552 1528.95 316 1522.5C202.5 1516 97 1401 81 1374.5C65 1348 65 1336 59 1304.5C53 1273 52.5 1210.5 53.5 1148Z" stroke="black" stroke-width="3"/>
<path d="M199.5 170C169.5 187.6 102.667 187.667 73 185.5C68.6667 171.167 58.9 136.2 54.5 111C50.1 85.8 17 68.8333 1 63.5C17.3333 67.3333 54.6 77 73 85C96 95 244.5 102 248.5 111C252.5 120 237 148 199.5 170Z" stroke="black" stroke-width="3"/>
<path d="M283 85C247 74.6 244 28 247 6V3H1903.5C1904.83 20.6667 1906.7 58.3 1903.5 67.5C1899.5 79 1871.5 100.5 1822.5 98C1773.5 95.5 1717.5 75 1671.5 67.5C1625.5 60 1581 56 1533.5 56C1486 56 1257.5 77.5 1188 85C1118.5 92.5 995.5 95 958 85C920.5 75 922 67.5 900.5 56C879 44.5 838.5 23 791 21.5C753 20.3 716.833 51.6667 703.5 67.5C697.167 82.3333 678.5 111.5 654.5 109.5C630.5 107.5 519.833 99 467.5 95C421 96 319 95.4 283 85Z" stroke="black" stroke-width="3"/>
<path d="M816.5 109C800.9 109 729 111.667 695 113C714.5 96.3333 763.2 61.7999 802 56.9999C850.5 50.9999 934.5 105 922 104C909.5 103 836 109 816.5 109Z" stroke="black" stroke-width="3"/>
<path d="M1677.5 1508.5H1038.5V1469.5C1038.5 1438.3 1094.17 1440.17 1122 1445H1713.5C1785.5 1445 1838 1396 1862.5 1378C1887 1360 1906.5 1294.5 1914.5 1262C1922.5 1229.5 1905 990.5 1906.5 948C1907.7 914 1898.33 582.833 1893.5 421.5V254.5C1893.5 236.1 1878.17 209.833 1870.5 199C1859.17 185.333 1841.4 154.8 1861 142C1885.5 126 1901.5 150 1928 158C1949.2 164.4 1977.17 176 1988.5 181V1221C1988.5 1263.5 1980 1306 1968.5 1347C1957 1388 1942.5 1448 1877 1481C1824.6 1507.4 1722.17 1510.33 1677.5 1508.5Z" stroke="black" stroke-width="3"/>
<path d="M1984.5 2H1943.5V53C1943.5 62.5 1928 88 1929 112C1929.8 131.2 1966.33 138 1984.5 139V2Z" stroke="black" stroke-width="3"/>
<path d="M79.5 55.5C50.7 54.3 18.8333 46.3333 6.5 42.5V6.5H211C212.167 22.8333 210.2 57.4 193 65C171.5 74.5 115.5 57 79.5 55.5Z" stroke="black" stroke-width="3"/>
</svg>
