<svg width="1990" height="1526" viewBox="0 0 1990 1526" fill="none" xmlns="http://www.w3.org/2000/svg">
<path d="M1278 573V910.5H1845V571H1278M1857 569.5V568.5M1857 568.5V271.5C1858.83 263.167 1860.5 243.1 1852.5 229.5C1844.5 215.9 1829.5 212.5 1823 212.5C1817.5 229.167 1803.8 269.1 1793 295.5C1779.5 328.5 1762 375 1712.5 389.5C1663 404 1578 414.5 1541.5 413.5C1505 412.5 1429 409.5 1392.5 420.5C1356 431.5 1310 459 1286.5 490C1263 521 1234 573 1227.5 621C1221 669 1219.07 687.712 1236.5 709.5C1244.5 719.5 1278 716.5 1278 718.5V765C1270.17 763.333 1251 762.6 1243 769C1233 777 1228 805.505 1227 819.5C1226 833.5 1235.5 938 1249 968.5C1262.5 999 1274.5 1040 1332.5 1066.5C1390.5 1093 1470.5 1102.5 1530.5 1108C1590.5 1113.5 1646.5 1116.5 1689.5 1165.5C1732.5 1214.5 1730.5 1236.5 1736 1250.5C1741.5 1264.5 1758.5 1298 1773.5 1306.5C1788.5 1315 1811 1330.5 1834.5 1306.5C1858 1282.5 1866.5 1274.5 1872 1247.5C1872 1210 1870.5 1138 1869.5 1127.5C1868.7 1119.1 1867.17 1055.67 1866.5 1025L1864.5 852.5V741L1857 568.5ZM232 280.5C239.333 279.167 257.1 277.3 269.5 280.5C285 284.5 344.5 315.5 359.5 321.5C374.5 327.5 492 355.5 507.5 364.5C523 373.5 547 376 567 384.5C587 393 621.134 390.441 651 382C674 375.5 690 378.5 707 384.5C735.5 399 783.692 446.099 793 463.5C804.5 485 825.5 542.5 833 557C839.337 569.251 882 632 884.5 668C886.5 696.8 884.5 703.5 888 727C894.5 762 906.3 838.9 901.5 866.5C895.5 901 868 960 846 981C824 1002 756 1073 727.5 1097.5C699 1122 614 1155 541 1156.5C468 1158 327.5 1253 290.5 1284C256 1315 221.4 1349.6 195 1316C168.6 1282.4 170 1195.67 174 1156.5L181.5 796V603.5L189 352.5C188.5 327.704 196.4 278.589 232 280.5ZM278.5 200C276.167 187.667 280.1 159.7 314.5 146.5C348.9 133.3 404.833 129 428.5 128.5C463.167 131 542.1 137.8 580.5 145C628.5 154 734 145 740.5 145C747 145 974.5 131.5 1006.5 128.5C1038.5 125.5 1222.5 114 1250.5 113C1278.5 112 1526.5 103.5 1552 103.5C1577.5 103.5 1691 87.5 1739.5 116C1788 144.5 1789 162 1787.5 182C1786 202 1773 255.5 1762.5 277.5C1752 299.5 1729.5 336 1718 345.5C1706.5 355 1655.5 377.5 1594 378.5C1532.5 379.5 1477 378.5 1460 380.5C1443 382.5 1387.5 386 1361.5 398C1335.5 410 1276 449 1255.5 481.5C1235 514 1212 566 1204.5 576C1197 586 1195 596.5 1176 596C1157 595.5 1052 583 1031.5 585C1011 587 958 606.5 928 599.5C898 592.5 877 552 866 526.5C855 501 841.5 474 830 453.5C818.5 433 782.5 383.5 743 364C703.5 344.5 662.5 341 636 339C609.5 337 541.5 329.5 519 326C496.5 322.5 422.5 306 395 295C367.5 284 332.5 261.5 314.5 245.5C296.5 229.5 286 221.5 281 210C277 200.8 277.667 199.5 278.5 200ZM59 817C57.5 906.333 54.3 1097.5 53.5 1147.5C52.5 1210 53 1272.5 59 1304C65 1335.5 65 1347.5 81 1374C97 1400.5 202.5 1515.5 316 1522C428.552 1528.45 600.599 1517.68 619.066 1516.53L619.5 1516.5C635.5 1515.5 778.5 1512.5 815.5 1511.5C845.1 1510.7 949.833 1511.17 998.5 1511.5C1002.83 1501.67 1007.1 1477.4 989.5 1459C971.9 1440.6 826.5 1443.67 756 1447.5C668 1448.67 487.9 1451.3 471.5 1452.5C451 1454 362.5 1470 306 1452.5C249.5 1435 177 1398 151.5 1354.5C126 1311 128 1233 129 1179.5C130 1126 136.5 946.5 136.5 907V378C136.5 364.5 147.5 283 123 271C98.5 259 59 287 59 327.5V817ZM73 185C102.667 187.167 169.5 187.1 199.5 169.5C237 147.5 252.5 119.5 248.5 110.5C244.5 101.5 96 94.5 73 84.5C54.6 76.5 17.3333 66.8333 1 63C17 68.3333 50.1 85.3 54.5 110.5C58.9 135.7 68.6667 170.667 73 185ZM247 5.5C244 27.5 247 74.1 283 84.5C319 94.9 421 95.5 467.5 94.5C519.833 98.5 630.5 107 654.5 109C678.5 111 697.167 81.8333 703.5 67C716.833 51.1667 753 19.8 791 21C838.5 22.5 879 44 900.5 55.5C922 67 920.5 74.5 958 84.5C995.5 94.5 1118.5 92 1188 84.5C1257.5 77 1486 55.5 1533.5 55.5C1581 55.5 1625.5 59.5 1671.5 67C1717.5 74.5 1773.5 95 1822.5 97.5C1871.5 100 1899.5 78.5 1903.5 67C1906.7 57.8 1904.83 20.1667 1903.5 2.5H247V5.5ZM695 112.5C729 111.167 800.9 108.5 816.5 108.5C836 108.5 909.5 102.5 922 103.5C934.5 104.5 850.5 50.4999 802 56.4999C763.2 61.2999 714.5 95.8333 695 112.5ZM1038.5 1508H1677.5C1722.17 1509.83 1824.6 1506.9 1877 1480.5C1942.5 1447.5 1957 1387.5 1968.5 1346.5C1980 1305.5 1988.5 1263 1988.5 1220.5V180.5C1977.17 175.5 1949.2 163.9 1928 157.5C1901.5 149.5 1885.5 125.5 1861 141.5C1841.4 154.3 1859.17 184.833 1870.5 198.5C1878.17 209.333 1893.5 235.6 1893.5 254V421C1898.33 582.333 1907.7 913.5 1906.5 947.5C1905 990 1922.5 1229 1914.5 1261.5C1906.5 1294 1887 1359.5 1862.5 1377.5C1838 1395.5 1785.5 1444.5 1713.5 1444.5H1122C1094.17 1439.67 1038.5 1437.8 1038.5 1469V1508ZM298 1375C290 1367.5 289.3 1339 350.5 1285C411.7 1231 495 1205.83 529 1200C571.167 1196.83 664.9 1184.6 702.5 1161C749.5 1131.5 832.5 1058 857 1021.5C881.5 985 914 945.5 950 931C986 916.5 1154.5 917.5 1176 931C1197.5 944.5 1228 1031 1264.5 1064.5C1301 1098 1337 1121.5 1403 1130C1469 1138.5 1545.5 1139.5 1596.5 1158.5C1647.5 1177.5 1691 1206.5 1699 1260.5C1707 1314.5 1742 1328 1744.5 1345.5C1746.5 1359.5 1732 1382.67 1724.5 1392.5C1687.17 1395.67 1607.7 1402 1588.5 1402C1564.5 1402 1404 1392.5 1350.5 1392.5C1297 1392.5 936.5 1402 901.5 1402C866.5 1402 559 1415 518.5 1415C478 1415 430 1428 368 1415C318.4 1404.6 300.667 1384 298 1375ZM1943.5 1.5H1984.5V138.5C1966.33 137.5 1929.8 130.7 1929 111.5C1928 87.5 1943.5 62 1943.5 52.5V1.5ZM6.5 42C18.8333 45.8333 50.7 53.8 79.5 55C115.5 56.5 171.5 74 193 64.5C210.2 56.9 212.167 22.3333 211 6H6.5V42Z" stroke="black" stroke-width="3"/>
</svg>
